HIERARCHY
ROOT Hips
{
	OFFSET 0.000000 87.230942 0.000000
	CHANNELS 6 Xposition Yposition Zposition Xrotation Yrotation Zrotation
	JOINT Pelvis
	{
		OFFSET 0.000000 0.000000 0.000000
		CHANNELS 3 Xrotation Yrotation Zrotation
		JOINT LeftUpLeg
		{
			OFFSET 12.017000 -9.376404 -2.439400
			CHANNELS 3 Xrotation Yrotation Zrotation
			JOINT LeftLeg
			{
				OFFSET -0.007312 -32.846973 2.110600
				CHANNELS 3 Xrotation Yrotation Zrotation
				JOINT LeftFoot
				{
					OFFSET 0.007312 -32.065170 -0.570400
					CHANNELS 3 Xrotation Yrotation Zrotation
					JOINT LeftToeBase
					{
						OFFSET 0.728300 -11.045900 13.180700
						CHANNELS 3 Xrotation Yrotation Zrotation
						End Site
						{
							OFFSET 0.000000 17.212589 0.000000
						}
					}
				}
				JOINT LeftPantLeg
				{
					OFFSET 0.002788 -16.709013 -3.143600
					CHANNELS 3 Xrotation Yrotation Zrotation
					End Site
					{
						OFFSET -0.605125 24.528742 0.000000
					}
				}
			}
			JOINT Left_Butt
			{
				OFFSET -6.630234 1.326584 -3.183700
				CHANNELS 3 Xrotation Yrotation Zrotation
				End Site
				{
					OFFSET -0.498041 20.188049 0.000000
				}
			}
		}
		JOINT RightUpLeg
		{
			OFFSET -11.717000 -9.376404 -2.439400
			CHANNELS 3 Xrotation Yrotation Zrotation
			JOINT RightLeg
			{
				OFFSET -0.003241 -32.846912 2.110600
				CHANNELS 3 Xrotation Yrotation Zrotation
				JOINT RightFoot
				{
					OFFSET 0.003241 -32.065136 -0.570500
					CHANNELS 3 Xrotation Yrotation Zrotation
					JOINT RightToeBase
					{
						OFFSET -0.728300 -11.045901 13.180700
						CHANNELS 3 Xrotation Yrotation Zrotation
						End Site
						{
							OFFSET 0.000000 17.212593 0.000000
						}
					}
				}
				JOINT RightPantLeg
				{
					OFFSET 0.008142 -16.708982 -3.143700
					CHANNELS 3 Xrotation Yrotation Zrotation
					End Site
					{
						OFFSET 0.605088 24.528715 0.000000
					}
				}
			}
			JOINT Right_Butt
			{
				OFFSET 6.630732 1.326584 -3.183700
				CHANNELS 3 Xrotation Yrotation Zrotation
				End Site
				{
					OFFSET 0.498015 20.188240 0.000000
				}
			}
		}
	}
	JOINT Spine
	{
		OFFSET -0.062400 7.848404 3.918300
		CHANNELS 3 Xrotation Yrotation Zrotation
		JOINT Spine1
		{
			OFFSET -0.072800 11.422302 0.713400
			CHANNELS 3 Xrotation Yrotation Zrotation
			JOINT Spine2
			{
				OFFSET -0.083200 13.054001 -1.931600
				CHANNELS 3 Xrotation Yrotation Zrotation
				JOINT Neck
				{
					OFFSET -0.092200 14.121796 -5.138800
					CHANNELS 3 Xrotation Yrotation Zrotation
					JOINT Head
					{
						OFFSET 0.000200 10.447403 -0.842000
						CHANNELS 3 Xrotation Yrotation Zrotation
						JOINT Visor
						{
							OFFSET 0.457100 25.671204 16.550400
							CHANNELS 3 Xrotation Yrotation Zrotation
							End Site
							{
								OFFSET 0.000000 26.061493 0.000000
							}
						}
						JOINT HairMidA
						{
							OFFSET 0.459400 31.585403 8.437400
							CHANNELS 3 Xrotation Yrotation Zrotation
							End Site
							{
								OFFSET 0.000000 26.061493 0.000000
							}
						}
						JOINT HairMidB
						{
							OFFSET 0.464000 33.309204 -8.389700
							CHANNELS 3 Xrotation Yrotation Zrotation
							End Site
							{
								OFFSET 0.000000 26.061493 0.000000
							}
						}
						JOINT HairMidC
						{
							OFFSET 0.466600 27.991196 -17.375099
							CHANNELS 3 Xrotation Yrotation Zrotation
							End Site
							{
								OFFSET 0.000000 26.061493 0.000000
							}
						}
						JOINT HairMidD
						{
							OFFSET 0.467700 17.888092 -21.169500
							CHANNELS 3 Xrotation Yrotation Zrotation
							End Site
							{
								OFFSET 0.000000 26.061493 0.000000
							}
						}
						JOINT HairMidE
						{
							OFFSET 5.325700 3.514603 -14.369699
							CHANNELS 3 Xrotation Yrotation Zrotation
							End Site
							{
								OFFSET 0.000000 26.061493 0.000000
							}
						}
						JOINT HairMidF
						{
							OFFSET -4.394100 3.514603 -14.372400
							CHANNELS 3 Xrotation Yrotation Zrotation
							End Site
							{
								OFFSET 0.000000 26.061493 0.000000
							}
						}
						JOINT HairLeftA
						{
							OFFSET 15.319900 25.746506 2.623300
							CHANNELS 3 Xrotation Yrotation Zrotation
							End Site
							{
								OFFSET 0.000000 26.061493 0.000000
							}
						}
						JOINT HairLeftB
						{
							OFFSET 12.619500 29.289398 -8.731499
							CHANNELS 3 Xrotation Yrotation Zrotation
							End Site
							{
								OFFSET 0.000000 26.061493 0.000000
							}
						}
						JOINT HairLeftC
						{
							OFFSET 15.714800 15.959900 2.909800
							CHANNELS 3 Xrotation Yrotation Zrotation
							End Site
							{
								OFFSET 0.000000 26.061493 0.000000
							}
						}
						JOINT HairLeftD
						{
							OFFSET 16.101700 18.437408 -7.553200
							CHANNELS 3 Xrotation Yrotation Zrotation
							End Site
							{
								OFFSET 0.000000 26.061493 0.000000
							}
						}
						JOINT HairLeftE
						{
							OFFSET 9.731900 17.915009 -18.316799
							CHANNELS 3 Xrotation Yrotation Zrotation
							End Site
							{
								OFFSET 0.000000 26.061493 0.000000
							}
						}
						JOINT HairLeftF
						{
							OFFSET 11.204300 4.953598 -9.668100
							CHANNELS 3 Xrotation Yrotation Zrotation
							End Site
							{
								OFFSET 0.000000 26.061493 0.000000
							}
						}
						JOINT HairRightA
						{
							OFFSET -14.397900 25.746307 2.615100
							CHANNELS 3 Xrotation Yrotation Zrotation
							End Site
							{
								OFFSET 0.000000 26.061493 0.000000
							}
						}
						JOINT HairRightB
						{
							OFFSET -11.691200 29.289200 -8.738199
							CHANNELS 3 Xrotation Yrotation Zrotation
							End Site
							{
								OFFSET 0.000000 26.061493 0.000000
							}
						}
						JOINT HairRightC
						{
							OFFSET -14.792900 15.959702 2.901400
							CHANNELS 3 Xrotation Yrotation Zrotation
							End Site
							{
								OFFSET 0.000000 26.061493 0.000000
							}
						}
						JOINT HairRightD
						{
							OFFSET -15.174000 18.437195 -7.561900
							CHANNELS 3 Xrotation Yrotation Zrotation
							End Site
							{
								OFFSET 0.000000 26.061493 0.000000
							}
						}
						JOINT HairRightE
						{
							OFFSET -8.798200 17.914902 -18.322001
							CHANNELS 3 Xrotation Yrotation Zrotation
							End Site
							{
								OFFSET 0.000000 26.061493 0.000000
							}
						}
						JOINT HairRightF
						{
							OFFSET -10.275200 4.953506 -9.674099
							CHANNELS 3 Xrotation Yrotation Zrotation
							End Site
							{
								OFFSET 0.000000 26.061493 0.000000
							}
						}
					}
				}
				JOINT LeftShoulder
				{
					OFFSET 5.133500 7.341202 -1.867600
					CHANNELS 3 Xrotation Yrotation Zrotation
					JOINT LeftArm
					{
						OFFSET 8.072663 0.936867 -2.176600
						CHANNELS 3 Xrotation Yrotation Zrotation
						JOINT LeftForeArm
						{
							OFFSET 31.271999 0.000000 0.000000
							CHANNELS 3 Xrotation Yrotation Zrotation
							JOINT LeftHand
							{
								OFFSET 31.771030 0.000000 0.000000
								CHANNELS 3 Xrotation Yrotation Zrotation
								JOINT LeftHandThumb1
								{
									OFFSET 2.886520 -2.557846 4.416638
									CHANNELS 3 Xrotation Yrotation Zrotation
									JOINT LeftHandThumb2
									{
										OFFSET 2.371025 -1.368912 1.368910
										CHANNELS 3 Xrotation Yrotation Zrotation
										JOINT LeftHandThumb3
										{
											OFFSET 2.243378 -1.295212 1.295213
											CHANNELS 3 Xrotation Yrotation Zrotation
											End Site
											{
												OFFSET -0.332611 2.876945 0.020016
											}
										}
									}
								}
								JOINT LeftHandIndex1
								{
									OFFSET 8.568985 -0.641945 3.119977
									CHANNELS 3 Xrotation Yrotation Zrotation
									JOINT LeftHandIndex2
									{
										OFFSET 3.348503 0.000000 0.000000
										CHANNELS 3 Xrotation Yrotation Zrotation
										JOINT LeftHandIndex3
										{
											OFFSET 3.314552 0.000000 0.000000
											CHANNELS 3 Xrotation Yrotation Zrotation
											End Site
											{
												OFFSET -1.032898 3.075485 0.678797
											}
										}
									}
								}
								JOINT LeftHandMiddle1
								{
									OFFSET 8.124603 0.000000 0.000000
									CHANNELS 3 Xrotation Yrotation Zrotation
									JOINT LeftHandMiddle2
									{
										OFFSET 4.166275 0.000000 0.000000
										CHANNELS 3 Xrotation Yrotation Zrotation
										JOINT LeftHandMiddle3
										{
											OFFSET 3.018135 0.000000 0.000000
											CHANNELS 3 Xrotation Yrotation Zrotation
											End Site
											{
												OFFSET -1.032700 2.767982 0.617226
											}
										}
									}
								}
								JOINT LeftHandRing1
								{
									OFFSET 8.571686 -0.031357 -2.884047
									CHANNELS 3 Xrotation Yrotation Zrotation
									JOINT LeftHandRing2
									{
										OFFSET 3.671181 0.000000 0.000000
										CHANNELS 3 Xrotation Yrotation Zrotation
										JOINT LeftHandRing3
										{
											OFFSET 2.728851 0.000000 0.000000
											CHANNELS 3 Xrotation Yrotation Zrotation
											End Site
											{
												OFFSET -0.815796 2.539223 0.577389
											}
										}
									}
								}
								JOINT LeftHandPinky1
								{
									OFFSET 7.854515 -0.675232 -5.213020
									CHANNELS 3 Xrotation Yrotation Zrotation
									JOINT LeftHandPinky2
									{
										OFFSET 3.068596 0.000000 0.000000
										CHANNELS 3 Xrotation Yrotation Zrotation
										JOINT LeftHandPinky3
										{
											OFFSET 2.396042 0.000000 0.000000
											CHANNELS 3 Xrotation Yrotation Zrotation
											End Site
											{
												OFFSET -0.524597 2.267998 0.567429
											}
										}
									}
								}
							}
							JOINT LeftSleeve
							{
								OFFSET 19.684509 -0.200119 0.476146
								CHANNELS 3 Xrotation Yrotation Zrotation
								End Site
								{
									OFFSET -0.031017 25.731133 -0.002868
								}
							}
						}
					}
				}
				JOINT RightShoulder
				{
					OFFSET -4.395900 7.341202 -1.870200
					CHANNELS 3 Xrotation Yrotation Zrotation
					JOINT RightArm
					{
						OFFSET -8.071453 0.936867 -2.181100
						CHANNELS 3 Xrotation Yrotation Zrotation
						JOINT RightForeArm
						{
							OFFSET -31.272011 0.000000 0.000000
							CHANNELS 3 Xrotation Yrotation Zrotation
							JOINT RightHand
							{
								OFFSET -31.771019 0.000000 0.000000
								CHANNELS 3 Xrotation Yrotation Zrotation
								JOINT RightHandThumb1
								{
									OFFSET -2.886520 -2.557808 4.416626
									CHANNELS 3 Xrotation Yrotation Zrotation
									JOINT RightHandThumb2
									{
										OFFSET -2.371056 -1.368927 1.368928
										CHANNELS 3 Xrotation Yrotation Zrotation
										JOINT RightHandThumb3
										{
											OFFSET -2.243362 -1.295204 1.295206
											CHANNELS 3 Xrotation Yrotation Zrotation
											End Site
											{
												OFFSET 0.332642 2.876938 0.020047
											}
										}
									}
								}
								JOINT RightHandIndex1
								{
									OFFSET -8.568993 -0.641953 3.120017
									CHANNELS 3 Xrotation Yrotation Zrotation
									JOINT RightHandIndex2
									{
										OFFSET -3.348518 0.000000 0.000000
										CHANNELS 3 Xrotation Yrotation Zrotation
										JOINT RightHandIndex3
										{
											OFFSET -3.314552 0.000000 0.000000
											CHANNELS 3 Xrotation Yrotation Zrotation
											End Site
											{
												OFFSET 1.032898 3.075478 0.678804
											}
										}
									}
								}
								JOINT RightHandMiddle1
								{
									OFFSET -8.124588 0.000000 0.000000
									CHANNELS 3 Xrotation Yrotation Zrotation
									JOINT RightHandMiddle2
									{
										OFFSET -4.166275 0.000000 0.000000
										CHANNELS 3 Xrotation Yrotation Zrotation
										JOINT RightHandMiddle3
										{
											OFFSET -3.018097 0.000000 0.000000
											CHANNELS 3 Xrotation Yrotation Zrotation
											End Site
											{
												OFFSET 1.032700 2.767937 0.617197
											}
										}
									}
								}
								JOINT RightHandRing1
								{
									OFFSET -8.571747 -0.031349 -2.884061
									CHANNELS 3 Xrotation Yrotation Zrotation
									JOINT RightHandRing2
									{
										OFFSET -3.671204 0.000000 0.000000
										CHANNELS 3 Xrotation Yrotation Zrotation
										JOINT RightHandRing3
										{
											OFFSET -2.728874 0.000000 0.000000
											CHANNELS 3 Xrotation Yrotation Zrotation
											End Site
											{
												OFFSET 0.815804 2.539261 0.577413
											}
										}
									}
								}
								JOINT RightHandPinky1
								{
									OFFSET -7.854561 -0.675247 -5.212970
									CHANNELS 3 Xrotation Yrotation Zrotation
									JOINT RightHandPinky2
									{
										OFFSET -3.068550 0.000000 0.000000
										CHANNELS 3 Xrotation Yrotation Zrotation
										JOINT RightHandPinky3
										{
											OFFSET -2.395981 0.000000 0.000000
											CHANNELS 3 Xrotation Yrotation Zrotation
											End Site
											{
												OFFSET 0.524605 2.267952 0.567413
											}
										}
									}
								}
							}
							JOINT RightSleeve
							{
								OFFSET -19.684753 -0.200165 0.476065
								CHANNELS 3 Xrotation Yrotation Zrotation
								End Site
								{
									OFFSET 0.031342 25.731255 -0.002917
								}
							}
						}
					}
				}
				JOINT Hood
				{
					OFFSET 0.369700 14.447800 -5.317800
					CHANNELS 3 Xrotation Yrotation Zrotation
					JOINT Hood1
					{
						OFFSET 0.001700 -5.553802 -5.895100
						CHANNELS 3 Xrotation Yrotation Zrotation
						JOINT Hood2
						{
							OFFSET -0.000200 -8.380501 0.763600
							CHANNELS 3 Xrotation Yrotation Zrotation
							End Site
							{
								OFFSET 0.000000 8.415215 0.000000
							}
						}
					}
				}
				JOINT Left_Breast
				{
					OFFSET 5.682500 3.120102 3.188800
					CHANNELS 3 Xrotation Yrotation Zrotation
					End Site
					{
						OFFSET 0.000000 10.528564 0.000000
					}
				}
				JOINT Right_Breast
				{
					OFFSET -4.947600 3.120102 3.185900
					CHANNELS 3 Xrotation Yrotation Zrotation
					End Site
					{
						OFFSET 0.000000 10.528564 0.000000
					}
				}
				JOINT Whistle
				{
					OFFSET 0.368200 11.471298 0.095400
					CHANNELS 3 Xrotation Yrotation Zrotation
					JOINT Whistle1
					{
						OFFSET -0.002000 -6.349899 7.479800
						CHANNELS 3 Xrotation Yrotation Zrotation
						JOINT Whistle2
						{
							OFFSET -0.001300 -8.217598 4.717600
							CHANNELS 3 Xrotation Yrotation Zrotation
							End Site
							{
								OFFSET 0.000000 9.475479 0.000000
							}
						}
					}
				}
			}
		}
		JOINT Belly
		{
			OFFSET 0.212400 1.593002 3.163700
			CHANNELS 3 Xrotation Yrotation Zrotation
			End Site
			{
				OFFSET 0.000000 7.496635 0.000000
			}
		}
	}
	JOINT FitGrandmaFacialAnim_Joint
	{
		OFFSET 1.150000 -86.211197 -1.220100
		CHANNELS 3 Xrotation Yrotation Zrotation
		End Site
		{
			OFFSET 0.000000 31.666618 0.000000
		}
	}
}
MOTION
Frames: 4
Frame Time: 0.016667
1.335073 85.386452 -0.229102 -2.395314 -5.332080 -1.178787 0.000000 -0.000000 -0.000000 -5.985391 16.209400 0.273243 24.599920 1.916773 -0.698569 -16.759385 -2.973685 3.907626 -0.000000 0.000000 -0.000000 0.000003 -0.000000 0.000000 -0.000000 0.000001 0.000000 -6.595567 -5.866243 1.221263 22.332130 -7.921254 0.656255 -13.332661 -0.629626 0.018744 0.000000 0.000000 0.000000 0.000000 0.000004 -0.000001 0.000000 0.000000 -0.000000 10.454465 3.092586 -2.652447 1.287662 0.463881 -0.136534 1.285363 0.467080 -0.136832 8.055009 -0.951944 1.103944 27.633979 -3.597779 4.786165 -0.000005 -0.000000 -0.000000 -0.000005 -0.000000 -0.000000 -0.000005 -0.000000 -0.000000 -0.000005 -0.000000 -0.000000 -0.000005 -0.000000 -0.000000 -0.000005 -0.000000 -0.000000 -0.000005 -0.000000 -0.000000 -0.000005 -0.000000 -0.000000 -0.000005 -0.000000 -0.000000 -0.000005 -0.000000 -0.000000 -0.000005 -0.000000 -0.000000 -0.000005 -0.000000 -0.000000 -0.000005 -0.000000 -0.000000 -0.000005 -0.000000 -0.000000 -0.000005 -0.000000 -0.000000 -0.000005 -0.000000 -0.000000 -0.000005 -0.000000 -0.000000 -0.000005 -0.000000 -0.000000 -0.000005 -0.000000 -0.000000 0.485186 -1.309932 -4.393854 13.277875 -31.528023 -64.564808 -0.000004 -35.227134 -0.000011 7.668327 2.119998 10.183058 -2.364268 7.304305 7.735320 5.630688 21.324875 5.195617 -0.000000 0.000001 -0.000001 0.112411 1.241579 -10.345960 0.182815 1.579232 -13.205894 0.000002 0.000001 0.000001 0.026167 0.600958 -4.986267 0.246431 1.829147 -15.344894 0.000004 0.000001 -0.000002 0.061211 0.917944 -7.629518 0.215059 1.710734 -14.328711 -0.000002 0.000003 -0.000001 0.352570 4.628974 -4.382095 0.257450 -2.183046 -16.219022 -0.000003 -0.000000 -0.000001 0.000003 0.000001 -0.000001 0.402383 0.220812 3.826485 4.945573 48.695711 64.226571 -0.000003 21.780444 0.000010 0.813503 6.004518 1.757162 -2.228962 -8.395540 -11.304596 9.932171 -19.275494 -2.235932 0.000004 0.000001 0.000002 0.063995 -0.943177 7.763855 0.362234 -2.219088 18.539906 -0.000003 -0.000002 -0.000001 0.063994 -0.943173 7.763856 0.362239 -2.219088 18.539903 -0.000001 0.000002 0.000001 0.063997 -0.943183 7.763858 0.362237 -2.219085 18.539905 0.000001 -0.000002 0.000001 0.063996 -0.943185 7.763852 0.362246 -2.219072 18.539910 0.000002 -0.000003 -0.000002 -0.000002 0.000002 -0.000002 0.000000 0.000000 0.000000 0.000000 0.000000 0.000000 0.000000 0.000000 0.000000 0.000000 0.000000 0.000000 0.000000 0.000000 0.000000 0.000000 0.000000 0.000000 -0.000000 0.000000 0.000000 -0.000000 0.000000 0.000000 0.000001 0.000000 0.000000 0.000000 -0.000000 -0.000000 
1.415861 85.366943 -0.253659 -2.355780 -5.400979 -1.189560 0.000000 0.000000 -0.000000 -5.929785 16.269584 0.087217 24.432065 1.401022 -0.427698 -16.703969 -2.255024 3.622245 -0.000000 -0.000000 0.000000 0.000001 0.000000 -0.000000 -0.000000 -0.000001 -0.000000 -6.707086 -5.795719 1.152561 22.465909 -7.630270 0.756037 -13.386917 -1.005353 -0.054504 -0.000000 -0.000002 -0.000000 -0.000001 -0.000000 -0.000000 0.000001 -0.000000 -0.000000 10.571226 2.964997 -2.680117 1.342940 0.445992 -0.097744 1.341010 0.450285 -0.098309 7.812121 -0.832976 1.087478 27.007374 -2.941877 3.920408 0.000001 0.000000 -0.000000 0.000001 0.000000 -0.000000 0.000001 0.000000 -0.000000 0.000001 0.000000 -0.000000 0.000001 0.000000 -0.000000 0.000001 0.000000 -0.000000 0.000001 0.000000 -0.000000 0.000001 0.000000 -0.000000 0.000001 0.000000 -0.000000 0.000001 0.000000 -0.000000 0.000001 0.000000 -0.000000 0.000001 0.000000 -0.000000 0.000001 0.000000 -0.000000 0.000001 0.000000 -0.000000 0.000001 0.000000 -0.000000 0.000001 0.000000 -0.000000 0.000001 0.000000 -0.000000 0.000001 0.000000 -0.000000 0.000001 0.000000 -0.000000 0.481563 -1.261220 -4.211922 13.953621 -31.407484 -64.052558 -0.000004 -37.111867 0.000011 9.218222 2.450357 8.954775 -2.364006 7.305237 7.735631 5.630630 21.328384 5.197019 0.000003 0.000004 0.000003 0.122139 1.293738 -10.785840 0.202069 1.659125 -13.887511 0.000003 -0.000002 0.000002 0.028059 0.622309 -5.163712 0.274823 1.929534 -16.210267 -0.000000 0.000000 -0.000004 0.067486 0.963716 -8.012468 0.238332 1.799347 -15.088649 -0.000003 0.000000 0.000001 0.367210 4.649605 -4.563182 0.278472 -2.112210 -16.830361 0.000002 -0.000000 -0.000002 0.000004 0.000000 -0.000000 0.423686 0.558664 3.645699 3.838019 49.329323 64.554338 -0.000014 20.653575 0.000011 0.465907 5.937719 2.537790 -2.228490 -8.399780 -11.307953 9.934247 -19.279324 -2.235980 -0.000001 -0.000002 0.000001 0.067275 -0.966856 7.960044 0.380497 -2.272788 19.006026 0.000001 0.000001 -0.000000 0.067268 -0.966859 7.960042 0.380506 -2.272783 19.006033 -0.000000 -0.000001 -0.000001 0.067275 -0.966859 7.960044 0.380497 -2.272794 19.006024 0.000000 -0.000000 0.000001 0.067271 -0.966873 7.960046 0.380509 -2.272774 19.006022 -0.000000 -0.000003 -0.000002 -0.000001 0.000002 -0.000001 -0.000001 -0.000000 -0.000000 -0.000001 -0.000000 -0.000000 -0.000001 -0.000000 -0.000000 -0.000001 -0.000000 -0.000000 -0.000001 -0.000000 -0.000000 -0.000001 -0.000000 -0.000000 -0.000000 -0.000000 -0.000000 -0.000000 -0.000000 -0.000000 -0.000000 0.000000 0.000000 0.000000 0.000000 -0.000000 
1.500174 85.359589 -0.272965 -2.308780 -5.469154 -1.185307 -0.000000 0.000000 0.000000 -5.891500 16.384768 -0.183589 24.281198 1.080880 -0.083679 -16.651001 -1.746740 3.470973 -0.000000 0.000000 -0.000000 -0.000001 -0.000000 -0.000000 0.000000 0.000001 -0.000000 -6.807201 -5.768028 1.037858 22.531375 -7.209641 0.882318 -13.394047 -1.339015 -0.163966 -0.000000 0.000000 -0.000000 0.000001 0.000001 -0.000000 0.000001 0.000000 0.000000 10.723378 2.845622 -2.725948 1.351409 0.429977 -0.072927 1.349991 0.434957 -0.073878 7.580848 -0.716624 1.102874 26.431898 -2.286866 3.346545 0.000001 -0.000001 0.000000 0.000001 -0.000001 0.000000 0.000001 -0.000001 0.000000 0.000001 -0.000001 0.000000 0.000001 -0.000001 0.000000 0.000001 -0.000001 0.000000 0.000001 -0.000001 0.000000 0.000001 -0.000001 0.000000 0.000001 -0.000001 0.000000 0.000001 -0.000001 0.000000 0.000001 -0.000001 0.000000 0.000001 -0.000001 0.000000 0.000001 -0.000001 0.000000 0.000001 -0.000001 0.000000 0.000001 -0.000001 0.000000 0.000001 -0.000001 0.000000 0.000001 -0.000001 0.000000 0.000001 -0.000001 0.000000 0.000001 -0.000001 0.000000 0.476152 -1.237105 -3.933612 14.470685 -31.037479 -63.864222 0.000001 -38.784806 0.000011 10.625711 2.569574 7.936433 -2.363373 7.307452 7.736359 5.630477 21.336696 5.200352 0.000004 -0.000001 0.000000 0.130485 1.336888 -11.150191 0.218574 1.724432 -14.446309 0.000000 -0.000001 0.000000 0.029688 0.640037 -5.311356 0.299151 2.011314 -16.918169 0.000002 0.000001 0.000002 0.072886 1.001242 -8.326711 0.258276 1.871704 -15.711375 -0.000002 -0.000001 -0.000000 0.379415 4.666738 -4.713760 0.296355 -2.054122 -17.333502 0.000003 0.000002 0.000000 0.000002 0.000000 -0.000001 0.441754 0.831627 3.443232 2.522321 49.279118 65.338368 0.000004 19.758889 0.000001 0.518063 5.713824 3.230725 -2.227304 -8.410284 -11.316240 9.939344 -19.288664 -2.236001 0.000001 0.000002 -0.000000 0.070720 -0.991198 8.161892 0.398677 -2.324837 19.459013 0.000001 0.000002 -0.000002 0.070720 -0.991201 8.161888 0.398686 -2.324825 19.459018 -0.000000 0.000000 0.000003 0.070719 -0.991206 8.161887 0.398689 -2.324819 19.459023 0.000003 -0.000000 0.000003 0.070720 -0.991206 8.161887 0.398684 -2.324818 19.459030 0.000002 0.000000 -0.000001 -0.000001 0.000001 -0.000002 0.000000 -0.000000 0.000000 0.000000 -0.000000 0.000000 0.000000 -0.000000 0.000000 0.000000 -0.000000 0.000000 0.000000 -0.000000 0.000000 0.000000 -0.000000 0.000000 0.000000 0.000000 0.000000 0.000000 0.000000 0.000000 0.000002 0.000000 0.000000 -0.000000 0.000000 0.000000 
1.586997 85.363037 -0.287189 -2.257566 -5.530234 -1.174634 -0.000000 -0.000000 -0.000000 -5.952194 16.428876 -0.401818 24.280423 0.983091 0.090602 -16.641390 -1.595358 3.684107 0.000000 0.000001 0.000000 -0.000002 -0.000001 0.000001 -0.000000 0.000002 0.000000 -6.888839 -5.710890 0.921837 22.522588 -6.825941 0.981839 -13.350465 -1.589534 -0.242420 -0.000000 0.000000 -0.000000 -0.000000 -0.000001 -0.000000 -0.000000 -0.000000 -0.000000 10.893041 2.749315 -2.792615 1.315027 0.417842 -0.058518 1.314123 0.423145 -0.059969 7.392583 -0.600987 1.118461 25.891000 -1.672005 3.046637 0.000003 0.000000 -0.000000 0.000003 0.000000 -0.000000 0.000003 0.000000 -0.000000 0.000003 0.000000 -0.000000 0.000003 0.000000 -0.000000 0.000003 0.000000 -0.000000 0.000003 0.000000 -0.000000 0.000003 0.000000 -0.000000 0.000003 0.000000 -0.000000 0.000003 0.000000 -0.000000 0.000003 0.000000 -0.000000 0.000003 0.000000 -0.000000 0.000003 0.000000 -0.000000 0.000003 0.000000 -0.000000 0.000003 0.000000 -0.000000 0.000003 0.000000 -0.000000 0.000003 0.000000 -0.000000 0.000003 0.000000 -0.000000 0.000003 0.000000 -0.000000 0.469434 -1.240769 -3.571516 14.959905 -30.412240 -63.818323 -0.000018 -40.477064 -0.000001 12.099456 2.680453 6.969857 -2.362425 7.310672 7.737411 5.630243 21.348900 5.205250 0.000002 -0.000000 -0.000001 0.139653 1.382477 -11.535626 0.234595 1.785438 -14.969309 0.000002 -0.000001 0.000002 0.031543 0.659666 -5.474812 0.322129 2.085357 -17.561431 0.000004 -0.000000 -0.000004 0.078182 1.036777 -8.624472 0.277513 1.938800 -16.290291 -0.000001 0.000000 -0.000000 0.392976 4.685559 -4.879751 0.314398 -1.997194 -17.827537 -0.000003 0.000000 -0.000001 0.000005 -0.000000 -0.000001 0.453561 1.012072 3.217397 1.307464 48.735281 66.222010 -0.000020 19.242432 0.000009 0.798014 5.208453 3.982039 -2.225507 -8.426277 -11.328854 9.947121 -19.302999 -2.236102 -0.000001 0.000002 -0.000001 0.075282 -1.022434 8.420900 0.420782 -2.386452 19.997119 -0.000001 0.000000 -0.000000 0.075274 -1.022441 8.420901 0.420790 -2.386443 19.997114 0.000001 -0.000001 0.000001 0.075276 -1.022446 8.420896 0.420796 -2.386443 19.997117 0.000000 0.000000 0.000003 0.075281 -1.022441 8.420898 0.420791 -2.386434 19.997120 -0.000000 0.000001 0.000001 -0.000002 0.000001 -0.000000 -0.000000 -0.000000 0.000000 -0.000000 -0.000000 0.000000 -0.000000 -0.000000 0.000000 -0.000000 -0.000000 0.000000 -0.000000 -0.000000 0.000000 -0.000000 -0.000000 0.000000 -0.000000 0.000000 0.000000 -0.000000 0.000000 0.000000 0.000001 -0.000000 -0.000000 -0.000000 -0.000000 -0.000000 
